***************************************************************

[IMG]http://www.hotimg.org/images/67363952943939111394.png[/IMG]

***************************************************************

[img]http://www.imagezon3.com/images/maTqu.jpg[/img]

***************************************************************

FILM TITLE: Hugo (2011)

***************************************************************

Genre:  Adventure | Drama | Family   

Rated PG for mild thematic material, some action/peril and smoking

Release: 10 February 2012 (Poland) 

Director: Martin Scorsese

Writer: John Logan (screenplay), Brian Selznick (book)

Stars:  Asa Butterfield, Chloë Grace Moretz and Christopher Lee

Country:  USA

Language:  English

Plot:
Set in 1930s Paris, an orphan who lives in the walls of a train station 
is wrapped up in a mystery involving his late father and an automaton.

IMDB Rating: 8.1/10 from 35,359 users   Metascore: 83/100
 
http://www.imdb.com/title/tt0970179/

****************************************************************

[url=http://www.imagezon3.com/images/oIpNb.png][img]http://www.imagezon3.com/images/thumbs/oIpNb.png[/img][/url]
[url=http://www.imagezon3.com/images/eJ5uU.png][img]http://www.imagezon3.com/images/thumbs/eJ5uU.png[/img][/url]
[url=http://www.imagezon3.com/images/W6E9U.png][img]http://www.imagezon3.com/images/thumbs/W6E9U.png[/img][/url]
[url=http://www.imagezon3.com/images/myU0g.png][img]http://www.imagezon3.com/images/thumbs/myU0g.png[/img][/url]
[url=http://www.imagezon3.com/images/Sy9Fd.png][img]http://www.imagezon3.com/images/thumbs/Sy9Fd.png[/img][/url]

****************************************************************

General
Unique ID                        : 246761232939150183145996652287233646644 (0xB9A47C196FF29920B5A40F34CB286034)
Complete name                    : Hugo 2011 720p BDRip x264 ac3 subs (mkv) [GREYSHADOW].mkv
Format                           : Matroska
Format version                   : Version 2
File size                        : 3.83 GiB
Duration                         : 2h 6mn
Overall bit rate                 : 4342 Kbps
Encoded date                     : UTC 2012-02-25 13:41:56
Writing application              : mkvmerge v5.3.0 ('I could have danced') built on Feb  9 2012 10:38:07
Writing library                  : libebml v1.2.3 + libmatroska v1.3.0

Video
ID                               : 1
Format                           : AVC
Format/Info                      : Advanced Video Codec
Format profile                   : High@L4.1
Format settings, CABAC           : Yes
Format settings, ReFrames        : 9 frames
Muxing mode                      : Header stripping
Codec ID                         : V_MPEG4/ISO/AVC
Duration                         : 2h 6mn
Bit rate                         : 3700 Kbps
Width                            : 1280 pixels
Height                           : 720 pixels
Display aspect ratio             : 16:9
Frame rate                       : 23.976 fps
Color space                      : YUV
Chroma subsampling               : 4:2:0
Bit depth                        : 8 bits
Scan type                        : Progressive
Bits/(Pixel*Frame)               : 0.167
Stream size                      : 3.19 GiB (83%)
Title                            : AVC MPEG4 Video
Writing library                  : x264 core 120 r2164 da19765
Language                         : English
Color primaries                  : BT.709-5, BT.1361, IEC 61966-2-4, SMPTE RP177
Transfer characteristics         : BT.709-5, BT.1361
Matrix coefficients              : BT.709-5, BT.1361, IEC 61966-2-4 709, SMPTE RP177

Audio
ID                               : 2
Format                           : AC-3
Format/Info                      : Audio Coding 3
Mode extension                   : CM (complete main)
Muxing mode                      : Header stripping
Codec ID                         : A_AC3
Duration                         : 2h 6mn
Bit rate mode                    : Constant
Bit rate                         : 640 Kbps
Channel(s)                       : 6 channels
Channel positions                : Front: L C R, Side: L R, LFE
Sampling rate                    : 48.0 KHz
Bit depth                        : 16 bits
Compression mode                 : Lossy
Stream size                      : 578 MiB (15%)
Title                            : AC3 5.1 640 kbps
Language                         : English

Text #1
ID                               : 3
Format                           : UTF-8
Codec ID                         : S_TEXT/UTF8
Codec ID/Info                    : UTF-8 Plain Text
Title                            : English Subtitle sup to srt
Language                         : English

Text #2
ID                               : 4
Format                           : UTF-8
Codec ID                         : S_TEXT/UTF8
Codec ID/Info                    : UTF-8 Plain Text
Title                            : English (Hard Of Hearing) Subtitle sup to srt
Language                         : English

Text #3
ID                               : 5
Format                           : UTF-8
Codec ID                         : S_TEXT/UTF8
Codec ID/Info                    : UTF-8 Plain Text
Title                            : French Subtitle sup to srt
Language                         : Spanish

Text #4
ID                               : 6
Format                           : UTF-8
Codec ID                         : S_TEXT/UTF8
Codec ID/Info                    : UTF-8 Plain Text
Title                            : Portuguese Subtitle sup to srt
Language                         : Portuguese

Text #5
ID                               : 7
Format                           : UTF-8
Codec ID                         : S_TEXT/UTF8
Codec ID/Info                    : UTF-8 Plain Text
Title                            : Spanish Subtitle sup to srt
Language                         : Spanish

****************************************************************

Video Source: Hugo.2011.BluRay.1080p.AVC.DTS-HD.MA7.1-CHDBits (41.6GB)

Thanks: chdbits.org

****************************************************************

I provide a small sample, so please download this to check your 
compatibility first if you are unsure.

****************************************************************

I am providing tutorials here :- 
http://tutorials4all.freeforums.org/index.php?sid=fb109f91dedb2901c4d0b39625c431f7
This is for opening my mkv encodes, remuxing to Bluray for PS3 or mkv or mp4 with 
additional or selected audio or subtitles which I will now start supplying, so if your
fed up finding the right encode to match your player - DO IT YOURSELF - it's simples.

I allow transfer of my encodes to any site, just give me credit (Thanks: GREYSHADOW)

****************************************************************